<?xml version="1.0" encoding="UTF-8"?>
<svg xmlns="http://www.w3.org/2000/svg" xmlns:xlink="http://www.w3.org/1999/xlink" width="2400" height="1680" viewBox="0 0 2400 1680">
<rect x="-240" y="-168" width="2880" height="2016" fill="rgb(99.609375%, 99.609375%, 99.609375%)" fill-opacity="1"/>
<path fill-rule="evenodd" fill="rgb(94.921875%, 83.984375%, 53.318787%)" fill-opacity="1" d="M 1620.671875 787.8125 C 1621.269531 788.328125 1623.058594 791.8125 1623.28125 796.636719 C 1623.578125 803.410156 1635.191406 801.46875 1637.089844 804.234375 C 1635.191406 807 1623.578125 805.058594 1623.28125 811.832031 C 1623.058594 816.65625 1621.269531 820.140625 1620.671875 820.65625 C 1620.070312 820.140625 1618.28125 816.65625 1618.058594 811.832031 C 1617.761719 805.058594 1606.148438 807 1604.25 804.234375 C 1606.148438 801.46875 1617.761719 803.410156 1618.058594 796.636719 C 1618.28125 791.8125 1620.070312 788.328125 1620.671875 787.8125 "/>
<path fill-rule="evenodd" fill="rgb(94.921875%, 83.984375%, 53.318787%)" fill-opacity="1" d="M 890.015625 627.390625 C 890.613281 627.910156 892.40625 631.390625 892.625 636.21875 C 892.929688 642.988281 904.53125 641.050781 906.433594 643.808594 C 904.53125 646.578125 892.929688 644.640625 892.625 651.410156 C 892.40625 656.238281 890.613281 659.71875 890.015625 660.238281 C 889.414062 659.71875 887.621094 656.238281 887.40625 651.410156 C 887.101562 644.640625 875.496094 646.578125 873.597656 643.808594 C 875.496094 641.050781 887.101562 642.988281 887.40625 636.21875 C 887.621094 631.390625 889.414062 627.910156 890.015625 627.390625 "/>
<path fill-rule="evenodd" fill="rgb(94.921875%, 83.984375%, 53.318787%)" fill-opacity="1" d="M 553.507812 790.171875 C 554.878906 791.351562 558.964844 799.304688 559.460938 810.3125 C 560.15625 825.78125 586.640625 821.34375 590.984375 827.65625 C 586.640625 833.972656 560.15625 829.535156 559.460938 845.003906 C 558.964844 856.011719 554.878906 863.960938 553.507812 865.144531 C 552.136719 863.960938 548.046875 856.011719 547.550781 845.003906 C 546.855469 829.535156 520.371094 833.972656 516.027344 827.65625 C 520.371094 821.34375 546.855469 825.78125 547.550781 810.3125 C 548.046875 799.304688 552.136719 791.351562 553.507812 790.171875 "/>
<path fill-rule="evenodd" fill="rgb(94.921875%, 83.984375%, 53.318787%)" fill-opacity="1" d="M 816.472656 683.152344 C 820.566406 683.152344 823.886719 686.472656 823.886719 690.566406 C 823.886719 694.660156 820.566406 697.980469 816.472656 697.980469 C 812.378906 697.980469 809.058594 694.660156 809.058594 690.566406 C 809.058594 686.472656 812.378906 683.152344 816.472656 683.152344 "/>
<path fill-rule="evenodd" fill="rgb(94.921875%, 83.984375%, 53.318787%)" fill-opacity="1" d="M 890.617188 730.335938 C 901.039062 730.335938 909.492188 738.785156 909.492188 749.207031 C 909.492188 759.632812 901.039062 768.082031 890.617188 768.082031 C 880.191406 768.082031 871.742188 759.632812 871.742188 749.207031 C 871.742188 738.785156 880.191406 730.335938 890.617188 730.335938 "/>
<path fill-rule="evenodd" fill="rgb(94.921875%, 83.984375%, 53.318787%)" fill-opacity="1" d="M 852.871094 804.480469 C 859.570312 804.480469 865.003906 809.910156 865.003906 816.613281 C 865.003906 823.3125 859.570312 828.742188 852.871094 828.742188 C 846.167969 828.742188 840.738281 823.3125 840.738281 816.613281 C 840.738281 809.910156 846.167969 804.480469 852.871094 804.480469 "/>
<path fill-rule="evenodd" fill="rgb(94.921875%, 83.984375%, 53.318787%)" fill-opacity="1" d="M 796.253906 1238.558594 C 800.347656 1238.558594 803.664062 1241.878906 803.664062 1245.972656 C 803.664062 1250.066406 800.347656 1253.386719 796.253906 1253.386719 C 792.15625 1253.386719 788.835938 1250.066406 788.835938 1245.972656 C 788.835938 1241.878906 792.15625 1238.558594 796.253906 1238.558594 "/>
<path fill-rule="evenodd" fill="rgb(94.921875%, 83.984375%, 53.318787%)" fill-opacity="1" d="M 815.796875 1172.503906 C 822.5 1172.503906 827.929688 1177.933594 827.929688 1184.636719 C 827.929688 1191.335938 822.5 1196.769531 815.796875 1196.769531 C 809.097656 1196.769531 803.664062 1191.335938 803.664062 1184.636719 C 803.664062 1177.933594 809.097656 1172.503906 815.796875 1172.503906 "/>
<path fill-rule="evenodd" fill="rgb(94.921875%, 83.984375%, 53.318787%)" fill-opacity="1" d="M 873.089844 1109.144531 C 879.792969 1109.144531 885.222656 1114.574219 885.222656 1121.277344 C 885.222656 1127.976562 879.792969 1133.40625 873.089844 1133.40625 C 866.390625 1133.40625 860.960938 1127.976562 860.960938 1121.277344 C 860.960938 1114.574219 866.390625 1109.144531 873.089844 1109.144531 "/>
<path fill-rule="evenodd" fill="rgb(94.921875%, 83.984375%, 53.318787%)" fill-opacity="1" d="M 827.257812 1048.480469 C 837.679688 1048.480469 846.132812 1056.929688 846.132812 1067.351562 C 846.132812 1077.777344 837.679688 1086.226562 827.257812 1086.226562 C 816.835938 1086.226562 808.382812 1077.777344 808.382812 1067.351562 C 808.382812 1056.929688 816.835938 1048.480469 827.257812 1048.480469 "/>
<path fill-rule="evenodd" fill="rgb(94.921875%, 83.984375%, 53.318787%)" fill-opacity="1" d="M 1583.53125 683.152344 C 1579.429688 683.152344 1576.109375 686.472656 1576.109375 690.566406 C 1576.109375 694.660156 1579.429688 697.980469 1583.53125 697.980469 C 1587.621094 697.980469 1590.941406 694.660156 1590.941406 690.566406 C 1590.941406 686.472656 1587.621094 683.152344 1583.53125 683.152344 "/>
<path fill-rule="evenodd" fill="rgb(94.921875%, 83.984375%, 53.318787%)" fill-opacity="1" d="M 1509.378906 730.335938 C 1498.960938 730.335938 1490.511719 738.785156 1490.511719 749.207031 C 1490.511719 759.632812 1498.960938 768.082031 1509.378906 768.082031 C 1519.808594 768.082031 1528.261719 759.632812 1528.261719 749.207031 C 1528.261719 738.785156 1519.808594 730.335938 1509.378906 730.335938 "/>
<path fill-rule="evenodd" fill="rgb(94.921875%, 83.984375%, 53.318787%)" fill-opacity="1" d="M 1547.128906 804.480469 C 1540.429688 804.480469 1535 809.910156 1535 816.613281 C 1535 823.3125 1540.429688 828.742188 1547.128906 828.742188 C 1553.828125 828.742188 1559.261719 823.3125 1559.261719 816.613281 C 1559.261719 809.910156 1553.828125 804.480469 1547.128906 804.480469 "/>
<path fill-rule="evenodd" fill="rgb(94.921875%, 83.984375%, 53.318787%)" fill-opacity="1" d="M 1603.75 1238.558594 C 1599.648438 1238.558594 1596.328125 1241.878906 1596.328125 1245.972656 C 1596.328125 1250.066406 1599.648438 1253.386719 1603.75 1253.386719 C 1607.839844 1253.386719 1611.160156 1250.066406 1611.160156 1245.972656 C 1611.160156 1241.878906 1607.839844 1238.558594 1603.75 1238.558594 "/>
<path fill-rule="evenodd" fill="rgb(94.921875%, 83.984375%, 53.318787%)" fill-opacity="1" d="M 1584.199219 1172.503906 C 1577.5 1172.503906 1572.070312 1177.933594 1572.070312 1184.636719 C 1572.070312 1191.335938 1577.5 1196.769531 1584.199219 1196.769531 C 1590.898438 1196.769531 1596.328125 1191.335938 1596.328125 1184.636719 C 1596.328125 1177.933594 1590.898438 1172.503906 1584.199219 1172.503906 "/>
<path fill-rule="evenodd" fill="rgb(94.921875%, 83.984375%, 53.318787%)" fill-opacity="1" d="M 1526.910156 1109.144531 C 1520.210938 1109.144531 1514.78125 1114.574219 1514.78125 1121.277344 C 1514.78125 1127.976562 1520.210938 1133.40625 1526.910156 1133.40625 C 1533.609375 1133.40625 1539.039062 1127.976562 1539.039062 1121.277344 C 1539.039062 1114.574219 1533.609375 1109.144531 1526.910156 1109.144531 "/>
<path fill-rule="evenodd" fill="rgb(94.921875%, 83.984375%, 53.318787%)" fill-opacity="1" d="M 1572.738281 1048.480469 C 1562.320312 1048.480469 1553.871094 1056.929688 1553.871094 1067.351562 C 1553.871094 1077.777344 1562.320312 1086.226562 1572.738281 1086.226562 C 1583.171875 1086.226562 1591.621094 1077.777344 1591.621094 1067.351562 C 1591.621094 1056.929688 1583.171875 1048.480469 1572.738281 1048.480469 "/>
<path fill-rule="evenodd" fill="rgb(94.921875%, 83.984375%, 53.318787%)" fill-opacity="1" d="M 823.519531 585.960938 C 821.570312 585.929688 819.597656 585.410156 817.785156 584.371094 C 815.855469 583.261719 814.351562 581.699219 813.332031 579.890625 C 810.183594 574.460938 805.613281 569.921875 800.109375 566.738281 C 794.859375 563.699219 788.714844 561.960938 782.121094 561.960938 C 737.097656 561.960938 754.207031 537.949219 782.121094 537.949219 C 793.003906 537.949219 803.25 540.878906 812.113281 546.011719 C 817.351562 549.5 820.792969 551.089844 823.519531 551.421875 C 826.25 551.089844 829.691406 549.5 834.929688 546.011719 C 843.792969 540.878906 854.039062 537.949219 864.921875 537.949219 C 892.835938 537.949219 909.941406 561.960938 864.921875 561.960938 C 858.324219 561.960938 852.183594 563.699219 846.933594 566.738281 C 841.429688 569.921875 836.859375 574.460938 833.710938 579.890625 C 832.691406 581.699219 831.1875 583.261719 829.257812 584.371094 C 827.445312 585.410156 825.472656 585.929688 823.519531 585.960938 "/>
<path fill-rule="evenodd" fill="rgb(94.921875%, 83.984375%, 53.318787%)" fill-opacity="1" d="M 710.28125 755.820312 C 708.328125 755.785156 706.359375 755.273438 704.546875 754.230469 C 702.617188 753.121094 701.113281 751.554688 700.09375 749.746094 C 696.945312 744.320312 692.375 739.773438 686.871094 736.59375 C 681.621094 733.558594 675.476562 731.820312 668.882812 731.820312 C 623.859375 731.820312 640.96875 707.808594 668.882812 707.808594 C 679.765625 707.808594 690.011719 710.742188 698.878906 715.863281 C 704.113281 719.355469 707.554688 720.949219 710.28125 721.273438 C 713.011719 720.949219 716.453125 719.355469 721.6875 715.863281 C 730.554688 710.742188 740.800781 707.808594 751.683594 707.808594 C 779.597656 707.808594 796.703125 731.820312 751.683594 731.820312 C 745.089844 731.820312 738.945312 733.558594 733.695312 736.59375 C 728.191406 739.773438 723.621094 744.320312 720.472656 749.746094 C 719.453125 751.554688 717.949219 753.121094 716.019531 754.230469 C 714.207031 755.273438 712.234375 755.785156 710.28125 755.820312 "/>
<path fill-rule="evenodd" fill="rgb(94.921875%, 83.984375%, 53.318787%)" fill-opacity="1" d="M 1889.910156 1037.761719 C 1889.910156 1030.410156 1895.738281 1017.242188 1903.078125 1016.445312 C 1910.410156 1017.242188 1916.25 1030.410156 1916.25 1037.761719 C 1916.46875 1054.921875 1923.441406 1065.542969 1934.378906 1076.484375 L 1967.808594 1109.914062 C 1972.121094 1114.230469 1979.371094 1128.894531 1975.011719 1133.257812 C 1970.640625 1137.621094 1956.328125 1130.03125 1952.011719 1125.710938 L 1936.261719 1110.65625 C 1922.410156 1096.8125 1915.808594 1101.242188 1916.25 1115.410156 L 1916.25 1125.117188 C 1916.46875 1142.277344 1923.441406 1152.898438 1934.378906 1163.839844 L 1972.128906 1201.59375 C 1976.449219 1205.910156 1983.691406 1220.578125 1979.328125 1224.9375 C 1974.96875 1229.300781 1960.648438 1221.710938 1956.328125 1217.390625 L 1936.261719 1198.011719 C 1922.410156 1184.167969 1915.808594 1188.601562 1916.25 1202.765625 L 1916.25 1207.621094 C 1916.46875 1224.78125 1923.441406 1235.402344 1934.378906 1246.34375 L 1970.558594 1283.183594 C 1974.878906 1287.5 1982.121094 1302.164062 1977.761719 1306.527344 C 1973.398438 1310.890625 1959.078125 1303.300781 1954.761719 1298.980469 L 1936.261719 1280.515625 C 1922.410156 1266.671875 1915.808594 1271.101562 1916.25 1285.269531 C 1916.25 1289.980469 1917.648438 1310.023438 1915.640625 1330.8125 C 1913.128906 1356.703125 1906.808594 1383.753906 1903.171875 1383.78125 C 1899.53125 1383.808594 1893.171875 1357.117188 1890.628906 1331.367188 C 1888.550781 1310.402344 1889.910156 1290.0625 1889.910156 1285.269531 C 1890.351562 1271.101562 1883.75 1266.671875 1869.898438 1280.515625 L 1852.75 1296.960938 C 1848.429688 1301.277344 1834.109375 1308.867188 1829.75 1304.507812 C 1825.378906 1300.144531 1832.628906 1285.480469 1836.949219 1281.160156 L 1871.78125 1246.34375 C 1882.71875 1235.402344 1889.691406 1224.78125 1889.910156 1207.621094 L 1889.910156 1202.765625 C 1890.351562 1188.601562 1883.75 1184.167969 1869.898438 1198.011719 L 1851.511719 1215.367188 C 1847.191406 1219.6875 1832.878906 1227.277344 1828.511719 1222.917969 C 1824.148438 1218.554688 1831.390625 1203.890625 1835.710938 1199.570312 L 1871.78125 1163.839844 C 1882.71875 1152.898438 1889.691406 1142.277344 1889.910156 1125.117188 L 1889.910156 1115.410156 C 1890.351562 1101.242188 1883.75 1096.8125 1869.898438 1110.65625 L 1854.148438 1125.710938 C 1849.828125 1130.03125 1835.519531 1137.621094 1831.148438 1133.257812 C 1826.789062 1128.894531 1834.03125 1114.230469 1838.351562 1109.914062 L 1871.78125 1076.484375 C 1882.71875 1065.542969 1889.691406 1054.921875 1889.910156 1037.761719 "/>
<path fill-rule="evenodd" fill="rgb(94.921875%, 83.984375%, 53.318787%)" fill-opacity="1" d="M 1714.238281 855.078125 C 1714.238281 848.261719 1719.660156 836.046875 1726.460938 835.3125 C 1733.261719 836.046875 1738.671875 848.261719 1738.671875 855.078125 C 1738.878906 870.988281 1745.328125 880.839844 1755.480469 890.984375 L 1786.480469 921.980469 C 1790.480469 925.988281 1797.199219 939.585938 1793.160156 943.632812 C 1789.109375 947.675781 1775.828125 940.636719 1771.828125 936.632812 L 1757.21875 922.671875 C 1744.390625 909.835938 1738.261719 913.941406 1738.671875 927.078125 L 1738.671875 936.082031 C 1738.878906 951.992188 1745.328125 961.84375 1755.480469 971.992188 L 1807.050781 1023.5625 C 1811.058594 1027.566406 1817.769531 1041.164062 1813.730469 1045.210938 C 1809.679688 1049.253906 1796.410156 1042.214844 1792.398438 1038.210938 L 1757.21875 1003.679688 C 1744.390625 990.839844 1738.261719 994.949219 1738.671875 1008.085938 L 1738.671875 1012.589844 C 1738.878906 1028.5 1745.328125 1038.347656 1755.480469 1048.496094 L 1810.910156 1103.28125 C 1814.910156 1107.285156 1821.628906 1120.882812 1817.589844 1124.929688 C 1813.539062 1128.976562 1800.261719 1121.9375 1796.261719 1117.929688 L 1757.21875 1080.183594 C 1744.390625 1067.34375 1738.261719 1071.453125 1738.671875 1084.589844 L 1738.671875 1102.59375 C 1738.878906 1118.503906 1745.328125 1128.355469 1755.480469 1138.503906 L 1789.28125 1170.949219 C 1793.289062 1174.953125 1800 1188.550781 1795.960938 1192.59375 C 1791.910156 1196.640625 1778.640625 1189.601562 1774.628906 1185.597656 L 1757.21875 1170.1875 C 1744.390625 1157.351562 1738.261719 1161.460938 1738.671875 1174.597656 C 1738.441406 1187.925781 1737.980469 1320.917969 1737.351562 1331.007812 C 1732.46875 1408.824219 1717.160156 1393.453125 1714.441406 1331.183594 C 1713.980469 1320.6875 1713.878906 1187.535156 1714.238281 1174.597656 C 1714.648438 1161.460938 1708.53125 1157.351562 1695.691406 1170.1875 L 1676.410156 1186.847656 C 1672.398438 1190.851562 1659.128906 1197.890625 1655.078125 1193.847656 C 1651.039062 1189.800781 1657.75 1176.203125 1661.761719 1172.195312 L 1697.441406 1138.503906 C 1707.578125 1128.355469 1714.039062 1118.503906 1714.238281 1102.59375 L 1714.238281 1084.589844 C 1714.648438 1071.453125 1708.53125 1067.34375 1695.691406 1080.183594 L 1656.660156 1117.929688 C 1652.648438 1121.9375 1639.378906 1128.976562 1635.328125 1124.929688 C 1631.289062 1120.882812 1638 1107.285156 1642.011719 1103.28125 L 1697.441406 1048.496094 C 1707.578125 1038.347656 1714.039062 1028.5 1714.238281 1012.589844 L 1714.238281 1008.085938 C 1714.648438 994.949219 1708.53125 990.839844 1695.691406 1003.679688 L 1660.511719 1038.210938 C 1656.511719 1042.214844 1643.230469 1049.253906 1639.191406 1045.210938 C 1635.140625 1041.164062 1641.859375 1027.566406 1645.859375 1023.5625 L 1697.441406 971.992188 C 1707.578125 961.84375 1714.039062 951.992188 1714.238281 936.082031 L 1714.238281 927.078125 C 1714.648438 913.941406 1708.53125 909.835938 1695.691406 922.671875 L 1681.089844 936.632812 C 1677.078125 940.636719 1663.808594 947.675781 1659.761719 943.632812 C 1655.71875 939.585938 1662.429688 925.988281 1666.441406 921.980469 L 1697.441406 890.984375 C 1707.578125 880.839844 1714.039062 870.988281 1714.238281 855.078125 "/>
<path fill-rule="evenodd" fill="rgb(94.921875%, 83.984375%, 53.318787%)" fill-opacity="1" d="M 510.09375 1037.761719 C 510.09375 1030.410156 504.257812 1017.242188 496.921875 1016.445312 C 489.585938 1017.242188 483.746094 1030.410156 483.746094 1037.761719 C 483.527344 1054.921875 476.566406 1065.542969 465.621094 1076.484375 L 432.195312 1109.914062 C 427.875 1114.230469 420.632812 1128.894531 424.992188 1133.257812 C 429.355469 1137.621094 443.675781 1130.03125 447.992188 1125.710938 L 463.742188 1110.65625 C 477.585938 1096.8125 484.1875 1101.242188 483.746094 1115.410156 L 483.746094 1125.117188 C 483.527344 1142.277344 476.566406 1152.898438 465.621094 1163.839844 L 427.871094 1201.59375 C 423.550781 1205.910156 416.308594 1220.578125 420.671875 1224.9375 C 425.03125 1229.300781 439.351562 1221.710938 443.667969 1217.390625 L 463.742188 1198.011719 C 477.585938 1184.167969 484.1875 1188.601562 483.746094 1202.765625 L 483.746094 1207.621094 C 483.527344 1224.78125 476.566406 1235.402344 465.621094 1246.34375 L 429.441406 1283.183594 C 425.121094 1287.5 417.878906 1302.164062 422.238281 1306.527344 C 426.601562 1310.890625 440.921875 1303.300781 445.238281 1298.980469 L 463.742188 1280.515625 C 477.585938 1266.671875 484.1875 1271.101562 483.746094 1285.269531 C 483.746094 1289.980469 482.347656 1310.023438 484.359375 1330.8125 C 486.867188 1356.703125 493.191406 1383.753906 496.824219 1383.78125 C 500.472656 1383.808594 506.828125 1357.117188 509.375 1331.367188 C 511.449219 1310.402344 510.09375 1290.0625 510.09375 1285.269531 C 509.652344 1271.101562 516.253906 1266.671875 530.097656 1280.515625 L 547.253906 1296.960938 C 551.574219 1301.277344 565.890625 1308.867188 570.253906 1304.507812 C 574.617188 1300.144531 567.371094 1285.480469 563.054688 1281.160156 L 528.21875 1246.34375 C 517.277344 1235.402344 510.3125 1224.78125 510.09375 1207.621094 L 510.09375 1202.765625 C 509.652344 1188.601562 516.253906 1184.167969 530.097656 1198.011719 L 548.488281 1215.367188 C 552.804688 1219.6875 567.121094 1227.277344 571.488281 1222.917969 C 575.847656 1218.554688 568.605469 1203.890625 564.285156 1199.570312 L 528.21875 1163.839844 C 517.277344 1152.898438 510.3125 1142.277344 510.09375 1125.117188 L 510.09375 1115.410156 C 509.652344 1101.242188 516.253906 1096.8125 530.097656 1110.65625 L 545.847656 1125.710938 C 550.167969 1130.03125 564.484375 1137.621094 568.847656 1133.257812 C 573.210938 1128.894531 565.964844 1114.230469 561.648438 1109.914062 L 528.21875 1076.484375 C 517.277344 1065.542969 510.3125 1054.921875 510.09375 1037.761719 "/>
<path fill-rule="evenodd" fill="rgb(94.921875%, 83.984375%, 53.318787%)" fill-opacity="1" d="M 685.757812 855.078125 C 685.757812 848.261719 680.34375 836.046875 673.539062 835.3125 C 666.738281 836.046875 661.324219 848.261719 661.324219 855.078125 C 661.121094 870.988281 654.664062 880.839844 644.519531 890.984375 L 613.519531 921.980469 C 609.515625 925.988281 602.800781 939.585938 606.84375 943.632812 C 610.890625 947.675781 624.164062 940.636719 628.171875 936.632812 L 642.773438 922.671875 C 655.613281 909.835938 661.734375 913.941406 661.324219 927.078125 L 661.324219 936.082031 C 661.121094 951.992188 654.664062 961.84375 644.519531 971.992188 L 592.949219 1023.5625 C 588.941406 1027.566406 582.226562 1041.164062 586.269531 1045.210938 C 590.316406 1049.253906 603.59375 1042.214844 607.597656 1038.210938 L 642.773438 1003.679688 C 655.613281 990.839844 661.734375 994.949219 661.324219 1008.085938 L 661.324219 1012.589844 C 661.121094 1028.5 654.664062 1038.347656 644.519531 1048.496094 L 589.089844 1103.28125 C 585.085938 1107.285156 578.367188 1120.882812 582.414062 1124.929688 C 586.460938 1128.976562 599.734375 1121.9375 603.742188 1117.929688 L 642.773438 1080.183594 C 655.613281 1067.34375 661.734375 1071.453125 661.324219 1084.589844 L 661.324219 1102.59375 C 661.121094 1118.503906 654.664062 1128.355469 644.519531 1138.503906 L 610.714844 1170.949219 C 606.710938 1174.953125 599.996094 1188.550781 604.039062 1192.59375 C 608.085938 1196.640625 621.363281 1189.601562 625.367188 1185.597656 L 642.773438 1170.1875 C 655.613281 1157.351562 661.734375 1161.460938 661.324219 1174.597656 C 661.558594 1187.925781 662.015625 1320.917969 662.648438 1331.007812 C 667.527344 1408.824219 682.84375 1393.453125 685.5625 1331.183594 C 686.023438 1320.6875 686.125 1187.535156 685.757812 1174.597656 C 685.347656 1161.460938 691.46875 1157.351562 704.308594 1170.1875 L 723.589844 1186.847656 C 727.597656 1190.851562 740.871094 1197.890625 744.917969 1193.847656 C 748.964844 1189.800781 742.246094 1176.203125 738.242188 1172.195312 L 702.566406 1138.503906 C 692.417969 1128.355469 685.960938 1118.503906 685.757812 1102.59375 L 685.757812 1084.589844 C 685.347656 1071.453125 691.46875 1067.34375 704.308594 1080.183594 L 743.34375 1117.929688 C 747.347656 1121.9375 760.621094 1128.976562 764.671875 1124.929688 C 768.714844 1120.882812 761.996094 1107.285156 757.992188 1103.28125 L 702.566406 1048.496094 C 692.417969 1038.347656 685.960938 1028.5 685.757812 1012.589844 L 685.757812 1008.085938 C 685.347656 994.949219 691.46875 990.839844 704.308594 1003.679688 L 739.484375 1038.210938 C 743.488281 1042.214844 756.765625 1049.253906 760.8125 1045.210938 C 764.855469 1041.164062 758.140625 1027.566406 754.136719 1023.5625 L 702.566406 971.992188 C 692.417969 961.84375 685.960938 951.992188 685.757812 936.082031 L 685.757812 927.078125 C 685.347656 913.941406 691.46875 909.835938 704.308594 922.671875 L 718.910156 936.632812 C 722.917969 940.636719 736.191406 947.675781 740.238281 943.632812 C 744.285156 939.585938 737.566406 925.988281 733.5625 921.980469 L 702.566406 890.984375 C 692.417969 880.839844 685.960938 870.988281 685.757812 855.078125 "/>
<path fill-rule="nonzero" fill="rgb(0%, 0%, 0%)" fill-opacity="1" d="M 685.757812 855.078125 C 685.757812 848.261719 680.34375 836.046875 673.539062 835.3125 C 666.738281 836.046875 661.324219 848.261719 661.324219 855.078125 C 661.121094 870.988281 654.664062 880.839844 644.519531 890.984375 L 613.519531 921.984375 C 609.515625 925.988281 602.800781 939.585938 606.84375 943.632812 C 610.890625 947.675781 624.164062 940.636719 628.171875 936.632812 L 642.773438 922.671875 C 655.613281 909.835938 661.734375 913.945312 661.324219 927.078125 L 661.324219 936.082031 C 661.121094 951.992188 654.664062 961.84375 644.519531 971.992188 L 592.949219 1023.5625 C 588.941406 1027.566406 582.226562 1041.164062 586.269531 1045.210938 C 590.316406 1049.253906 603.59375 1042.214844 607.597656 1038.210938 L 642.773438 1003.679688 C 655.613281 990.839844 661.734375 994.949219 661.324219 1008.085938 L 661.324219 1012.589844 C 661.121094 1028.5 654.664062 1038.347656 644.519531 1048.496094 L 589.089844 1103.28125 C 585.085938 1107.285156 578.367188 1120.882812 582.414062 1124.929688 C 586.460938 1128.976562 599.734375 1121.9375 603.742188 1117.929688 L 642.773438 1080.183594 C 655.613281 1067.34375 661.734375 1071.453125 661.324219 1084.589844 L 661.324219 1102.59375 C 661.121094 1118.503906 654.664062 1128.355469 644.519531 1138.503906 L 610.714844 1170.945312 C 606.710938 1174.953125 599.996094 1188.550781 604.039062 1192.59375 C 608.085938 1196.640625 621.363281 1189.601562 625.367188 1185.597656 L 642.773438 1170.1875 C 655.613281 1157.351562 661.734375 1161.460938 661.324219 1174.597656 C 661.558594 1187.925781 662.015625 1320.917969 662.648438 1331.007812 C 667.527344 1408.824219 682.84375 1393.453125 685.5625 1331.183594 C 686.023438 1320.6875 686.125 1187.535156 685.757812 1174.597656 C 685.347656 1161.460938 691.46875 1157.351562 704.308594 1170.1875 L 723.589844 1186.847656 C 727.597656 1190.851562 740.871094 1197.890625 744.917969 1193.84375 C 748.964844 1189.800781 742.246094 1176.203125 738.242188 1172.195312 L 702.566406 1138.503906 C 692.417969 1128.355469 685.960938 1118.503906 685.757812 1102.59375 L 685.757812 1084.589844 C 685.347656 1071.453125 691.46875 1067.34375 704.308594 1080.183594 L 743.34375 1117.929688 C 747.347656 1121.9375 760.621094 1128.976562 764.667969 1124.929688 C 768.714844 1120.882812 761.996094 1107.285156 757.992188 1103.28125 L 702.566406 1048.496094 C 692.417969 1038.347656 685.960938 1028.5 685.757812 1012.589844 L 685.757812 1008.085938 C 685.347656 994.949219 691.46875 990.839844 704.308594 1003.679688 L 739.484375 1038.210938 C 743.488281 1042.214844 756.765625 1049.253906 760.8125 1045.210938 C 764.855469 1041.164062 758.140625 1027.566406 754.136719 1023.5625 L 702.566406 971.992188 C 692.417969 961.84375 685.960938 951.992188 685.757812 936.082031 L 685.757812 927.078125 C 685.347656 913.945312 691.46875 909.835938 704.308594 922.671875 L 718.910156 936.632812 C 722.914062 940.636719 736.195312 947.675781 740.238281 943.632812 C 744.285156 939.585938 737.566406 925.988281 733.5625 921.984375 L 702.566406 890.984375 C 692.417969 880.839844 685.960938 870.988281 685.757812 855.078125 "/>
<path fill-rule="nonzero" fill="rgb(0%, 0%, 0%)" fill-opacity="1" d="M 510.09375 1037.761719 C 510.09375 1030.410156 504.257812 1017.242188 496.921875 1016.445312 C 489.585938 1017.242188 483.746094 1030.410156 483.746094 1037.761719 C 483.527344 1054.921875 476.566406 1065.542969 465.621094 1076.484375 L 432.195312 1109.914062 C 427.875 1114.230469 420.632812 1128.894531 424.992188 1133.257812 C 429.355469 1137.621094 443.675781 1130.03125 447.992188 1125.710938 L 463.742188 1110.65625 C 477.585938 1096.8125 484.1875 1101.242188 483.746094 1115.410156 L 483.746094 1125.117188 C 483.527344 1142.277344 476.566406 1152.898438 465.621094 1163.839844 L 427.871094 1201.59375 C 423.550781 1205.910156 416.308594 1220.578125 420.671875 1224.9375 C 425.03125 1229.300781 439.351562 1221.710938 443.667969 1217.390625 L 463.742188 1198.011719 C 477.585938 1184.167969 484.1875 1188.601562 483.746094 1202.765625 L 483.746094 1207.621094 C 483.527344 1224.78125 476.566406 1235.402344 465.621094 1246.34375 L 429.441406 1283.183594 C 425.121094 1287.5 417.878906 1302.164062 422.238281 1306.527344 C 426.601562 1310.890625 440.921875 1303.300781 445.238281 1298.980469 L 463.742188 1280.515625 C 477.585938 1266.671875 484.1875 1271.101562 483.746094 1285.269531 C 483.746094 1289.980469 482.347656 1310.023438 484.359375 1330.8125 C 486.867188 1356.703125 493.191406 1383.753906 496.824219 1383.78125 C 500.472656 1383.808594 506.828125 1357.117188 509.375 1331.367188 C 511.449219 1310.402344 510.09375 1290.0625 510.09375 1285.269531 C 509.652344 1271.101562 516.253906 1266.671875 530.097656 1280.515625 L 547.253906 1296.960938 C 551.574219 1301.277344 565.890625 1308.867188 570.253906 1304.507812 C 574.617188 1300.144531 567.371094 1285.480469 563.054688 1281.160156 L 528.21875 1246.34375 C 517.277344 1235.402344 510.3125 1224.78125 510.09375 1207.621094 L 510.09375 1202.765625 C 509.652344 1188.601562 516.253906 1184.167969 530.097656 1198.011719 L 548.488281 1215.367188 C 552.804688 1219.6875 567.121094 1227.277344 571.488281 1222.917969 C 575.847656 1218.554688 568.605469 1203.890625 564.285156 1199.570312 L 528.21875 1163.839844 C 517.277344 1152.898438 510.3125 1142.277344 510.09375 1125.117188 L 510.09375 1115.410156 C 509.652344 1101.242188 516.253906 1096.8125 530.097656 1110.65625 L 545.847656 1125.710938 C 550.167969 1130.03125 564.484375 1137.621094 568.847656 1133.257812 C 573.210938 1128.894531 565.964844 1114.230469 561.648438 1109.914062 L 528.21875 1076.484375 C 517.277344 1065.542969 510.3125 1054.921875 510.09375 1037.761719 "/>
<path fill-rule="nonzero" fill="rgb(0%, 0%, 0%)" fill-opacity="1" d="M 1714.238281 855.078125 C 1714.238281 848.261719 1719.660156 836.046875 1726.460938 835.3125 C 1733.261719 836.046875 1738.671875 848.261719 1738.671875 855.078125 C 1738.878906 870.988281 1745.328125 880.839844 1755.480469 890.984375 L 1786.480469 921.984375 C 1790.480469 925.988281 1797.199219 939.585938 1793.160156 943.632812 C 1789.109375 947.675781 1775.828125 940.636719 1771.828125 936.632812 L 1757.21875 922.671875 C 1744.390625 909.835938 1738.261719 913.945312 1738.671875 927.078125 L 1738.671875 936.082031 C 1738.878906 951.992188 1745.328125 961.84375 1755.480469 971.992188 L 1807.050781 1023.5625 C 1811.058594 1027.566406 1817.769531 1041.164062 1813.730469 1045.210938 C 1809.679688 1049.253906 1796.410156 1042.214844 1792.398438 1038.210938 L 1757.21875 1003.679688 C 1744.390625 990.839844 1738.261719 994.949219 1738.671875 1008.085938 L 1738.671875 1012.589844 C 1738.878906 1028.5 1745.328125 1038.347656 1755.480469 1048.496094 L 1810.910156 1103.28125 C 1814.910156 1107.285156 1821.628906 1120.882812 1817.589844 1124.929688 C 1813.539062 1128.976562 1800.261719 1121.9375 1796.261719 1117.929688 L 1757.21875 1080.183594 C 1744.390625 1067.34375 1738.261719 1071.453125 1738.671875 1084.589844 L 1738.671875 1102.59375 C 1738.878906 1118.503906 1745.328125 1128.355469 1755.480469 1138.503906 L 1789.28125 1170.945312 C 1793.289062 1174.953125 1800 1188.550781 1795.960938 1192.59375 C 1791.910156 1196.640625 1778.640625 1189.601562 1774.628906 1185.597656 L 1757.21875 1170.1875 C 1744.390625 1157.351562 1738.261719 1161.460938 1738.671875 1174.597656 C 1738.441406 1187.925781 1737.980469 1320.917969 1737.351562 1331.007812 C 1732.46875 1408.824219 1717.160156 1393.453125 1714.441406 1331.183594 C 1713.980469 1320.6875 1713.878906 1187.535156 1714.238281 1174.597656 C 1714.648438 1161.460938 1708.53125 1157.351562 1695.691406 1170.1875 L 1676.410156 1186.847656 C 1672.398438 1190.851562 1659.128906 1197.890625 1655.078125 1193.84375 C 1651.039062 1189.800781 1657.75 1176.203125 1661.761719 1172.195312 L 1697.441406 1138.503906 C 1707.578125 1128.355469 1714.039062 1118.503906 1714.238281 1102.59375 L 1714.238281 1084.589844 C 1714.648438 1071.453125 1708.53125 1067.34375 1695.691406 1080.183594 L 1656.660156 1117.929688 C 1652.648438 1121.9375 1639.378906 1128.976562 1635.328125 1124.929688 C 1631.289062 1120.882812 1638 1107.285156 1642.011719 1103.28125 L 1697.441406 1048.496094 C 1707.578125 1038.347656 1714.039062 1028.5 1714.238281 1012.589844 L 1714.238281 1008.085938 C 1714.648438 994.949219 1708.53125 990.839844 1695.691406 1003.679688 L 1660.519531 1038.210938 C 1656.511719 1042.214844 1643.230469 1049.253906 1639.191406 1045.210938 C 1635.140625 1041.164062 1641.859375 1027.566406 1645.859375 1023.5625 L 1697.441406 971.992188 C 1707.578125 961.84375 1714.039062 951.992188 1714.238281 936.082031 L 1714.238281 927.078125 C 1714.648438 913.945312 1708.53125 909.835938 1695.691406 922.671875 L 1681.089844 936.632812 C 1677.078125 940.636719 1663.808594 947.675781 1659.761719 943.632812 C 1655.71875 939.585938 1662.429688 925.988281 1666.441406 921.984375 L 1697.441406 890.984375 C 1707.578125 880.839844 1714.039062 870.988281 1714.238281 855.078125 "/>
<path fill-rule="nonzero" fill="rgb(0%, 0%, 0%)" fill-opacity="1" d="M 1889.910156 1037.761719 C 1889.910156 1030.410156 1895.738281 1017.242188 1903.078125 1016.445312 C 1910.410156 1017.242188 1916.25 1030.410156 1916.25 1037.761719 C 1916.46875 1054.921875 1923.441406 1065.542969 1934.378906 1076.484375 L 1967.808594 1109.914062 C 1972.121094 1114.230469 1979.371094 1128.894531 1975.011719 1133.257812 C 1970.640625 1137.621094 1956.328125 1130.03125 1952.011719 1125.710938 L 1936.261719 1110.65625 C 1922.410156 1096.8125 1915.808594 1101.242188 1916.25 1115.410156 L 1916.25 1125.117188 C 1916.46875 1142.277344 1923.441406 1152.898438 1934.378906 1163.839844 L 1972.128906 1201.59375 C 1976.449219 1205.910156 1983.691406 1220.578125 1979.328125 1224.9375 C 1974.96875 1229.300781 1960.648438 1221.710938 1956.328125 1217.390625 L 1936.261719 1198.011719 C 1922.410156 1184.167969 1915.808594 1188.601562 1916.25 1202.765625 L 1916.25 1207.621094 C 1916.46875 1224.78125 1923.441406 1235.402344 1934.378906 1246.34375 L 1970.558594 1283.183594 C 1974.878906 1287.5 1982.121094 1302.164062 1977.761719 1306.527344 C 1973.398438 1310.890625 1959.078125 1303.300781 1954.761719 1298.980469 L 1936.261719 1280.515625 C 1922.410156 1266.671875 1915.808594 1271.101562 1916.25 1285.269531 C 1916.25 1289.980469 1917.648438 1310.023438 1915.640625 1330.8125 C 1913.128906 1356.703125 1906.808594 1383.753906 1903.171875 1383.78125 C 1899.53125 1383.808594 1893.171875 1357.117188 1890.628906 1331.367188 C 1888.550781 1310.402344 1889.910156 1290.0625 1889.910156 1285.269531 C 1890.351562 1271.101562 1883.75 1266.671875 1869.898438 1280.515625 L 1852.75 1296.960938 C 1848.429688 1301.277344 1834.109375 1308.867188 1829.75 1304.507812 C 1825.378906 1300.144531 1832.628906 1285.480469 1836.949219 1281.160156 L 1871.78125 1246.34375 C 1882.71875 1235.402344 1889.691406 1224.78125 1889.910156 1207.621094 L 1889.910156 1202.765625 C 1890.351562 1188.601562 1883.75 1184.167969 1869.898438 1198.011719 L 1851.511719 1215.367188 C 1847.191406 1219.6875 1832.878906 1227.277344 1828.511719 1222.917969 C 1824.148438 1218.554688 1831.390625 1203.890625 1835.710938 1199.570312 L 1871.78125 1163.839844 C 1882.71875 1152.898438 1889.691406 1142.277344 1889.910156 1125.117188 L 1889.910156 1115.410156 C 1890.351562 1101.242188 1883.75 1096.8125 1869.898438 1110.65625 L 1854.148438 1125.710938 C 1849.828125 1130.03125 1835.519531 1137.621094 1831.148438 1133.257812 C 1826.789062 1128.894531 1834.03125 1114.230469 1838.351562 1109.914062 L 1871.78125 1076.484375 C 1882.71875 1065.542969 1889.691406 1054.921875 1889.910156 1037.761719 "/>
<path fill-rule="nonzero" fill="rgb(0%, 0%, 0%)" fill-opacity="1" d="M 710.28125 755.820312 C 708.328125 755.785156 706.359375 755.273438 704.546875 754.230469 C 702.617188 753.121094 701.113281 751.554688 700.09375 749.746094 C 696.945312 744.320312 692.375 739.773438 686.871094 736.59375 C 681.621094 733.558594 675.476562 731.820312 668.882812 731.820312 C 623.859375 731.820312 640.96875 707.808594 668.882812 707.808594 C 679.765625 707.808594 690.011719 710.742188 698.878906 715.863281 C 704.113281 719.355469 707.554688 720.949219 710.28125 721.273438 C 713.011719 720.949219 716.453125 719.355469 721.6875 715.863281 C 730.554688 710.742188 740.800781 707.808594 751.683594 707.808594 C 779.597656 707.808594 796.703125 731.820312 751.683594 731.820312 C 745.089844 731.820312 738.945312 733.558594 733.695312 736.59375 C 728.191406 739.773438 723.621094 744.320312 720.472656 749.746094 C 719.453125 751.554688 717.949219 753.121094 716.019531 754.230469 C 714.207031 755.273438 712.234375 755.785156 710.28125 755.820312 "/>
<path fill-rule="nonzero" fill="rgb(0%, 0%, 0%)" fill-opacity="1" d="M 823.519531 585.960938 C 821.570312 585.929688 819.597656 585.410156 817.785156 584.371094 C 815.855469 583.261719 814.351562 581.699219 813.332031 579.890625 C 810.183594 574.460938 805.613281 569.921875 800.109375 566.738281 C 794.859375 563.699219 788.714844 561.960938 782.121094 561.960938 C 737.097656 561.960938 754.207031 537.949219 782.121094 537.949219 C 793.003906 537.949219 803.25 540.878906 812.113281 546.011719 C 817.351562 549.5 820.792969 551.089844 823.519531 551.421875 C 826.25 551.089844 829.691406 549.5 834.929688 546.011719 C 843.792969 540.878906 854.039062 537.949219 864.921875 537.949219 C 892.835938 537.949219 909.941406 561.960938 864.921875 561.960938 C 858.324219 561.960938 852.183594 563.699219 846.933594 566.738281 C 841.429688 569.921875 836.859375 574.460938 833.710938 579.890625 C 832.691406 581.699219 831.1875 583.261719 829.257812 584.371094 C 827.445312 585.410156 825.472656 585.929688 823.519531 585.960938 "/>
<path fill-rule="nonzero" fill="rgb(0%, 0%, 0%)" fill-opacity="1" d="M 1732.859375 742.339844 C 1734.808594 742.304688 1736.78125 741.789062 1738.589844 740.75 C 1740.519531 739.640625 1742.019531 738.074219 1743.039062 736.265625 C 1746.191406 730.839844 1750.761719 726.292969 1756.269531 723.113281 C 1761.519531 720.078125 1767.660156 718.339844 1774.261719 718.339844 C 1819.28125 718.339844 1802.171875 694.328125 1774.261719 694.328125 C 1763.371094 694.328125 1753.128906 697.261719 1744.261719 702.382812 C 1739.03125 705.875 1735.578125 707.46875 1732.859375 707.792969 C 1730.128906 707.46875 1726.679688 705.875 1721.449219 702.382812 C 1712.578125 697.261719 1702.339844 694.328125 1691.449219 694.328125 C 1663.539062 694.328125 1646.429688 718.339844 1691.449219 718.339844 C 1698.050781 718.339844 1704.191406 720.078125 1709.441406 723.113281 C 1714.949219 726.292969 1719.519531 730.839844 1722.671875 736.265625 C 1723.691406 738.074219 1725.191406 739.640625 1727.121094 740.75 C 1728.929688 741.789062 1730.898438 742.304688 1732.859375 742.339844 "/>
<path fill-rule="nonzero" fill="rgb(0%, 0%, 0%)" fill-opacity="1" d="M 1447.058594 443.070312 C 1449.019531 443.03125 1450.988281 442.519531 1452.800781 441.480469 C 1454.730469 440.371094 1456.230469 438.800781 1457.25 436.988281 C 1460.398438 431.570312 1464.96875 427.019531 1470.480469 423.839844 C 1475.730469 420.808594 1481.871094 419.070312 1488.460938 419.070312 C 1533.488281 419.070312 1516.378906 395.058594 1488.460938 395.058594 C 1477.578125 395.058594 1467.339844 397.988281 1458.46875 403.109375 C 1453.230469 406.601562 1449.789062 408.191406 1447.058594 408.519531 C 1444.328125 408.191406 1440.890625 406.601562 1435.660156 403.109375 C 1426.789062 397.988281 1416.550781 395.058594 1405.660156 395.058594 C 1377.75 395.058594 1360.640625 419.070312 1405.660156 419.070312 C 1412.261719 419.070312 1418.398438 420.808594 1423.648438 423.839844 C 1429.148438 427.019531 1433.730469 431.570312 1436.878906 436.988281 C 1437.890625 438.800781 1439.398438 440.371094 1441.328125 441.480469 C 1443.140625 442.519531 1445.109375 443.03125 1447.058594 443.070312 "/>
<path fill-rule="evenodd" fill="rgb(0%, 0%, 0%)" fill-opacity="1" d="M 853.238281 963.667969 C 831.4375 963.804688 811.273438 952.117188 800.554688 933.132812 C 789.835938 914.148438 790.242188 890.847656 801.621094 872.25 C 812.996094 853.652344 833.558594 842.675781 855.339844 843.574219 C 863.792969 826.160156 880.699219 814.402344 899.964844 812.539062 C 919.230469 810.675781 938.078125 818.972656 949.710938 834.441406 C 973.996094 829.699219 998.875 839.101562 1013.949219 858.726562 C 1029.019531 878.347656 1031.691406 904.8125 1020.839844 927.054688 C 1010 949.292969 987.496094 963.480469 962.753906 963.683594 Z M 1001.960938 898.367188 C 1001.988281 885.394531 995.601562 873.246094 984.890625 865.929688 C 974.179688 858.613281 960.539062 857.082031 948.46875 861.839844 C 942.046875 864.34375 934.78125 861.417969 931.890625 855.160156 C 927.097656 844.820312 916.6875 838.246094 905.289062 838.359375 C 891.703125 838.324219 879.878906 847.632812 876.722656 860.847656 C 875.039062 867.816406 868.046875 872.121094 861.066406 870.488281 C 848.328125 867.496094 835 872.085938 826.800781 882.28125 C 818.601562 892.484375 816.984375 906.484375 822.644531 918.285156 C 828.304688 930.082031 840.234375 937.589844 853.320312 937.578125 L 962.820312 937.578125 C 984.441406 937.527344 1001.949219 919.988281 1001.949219 898.367188 L 1001.960938 898.367188 "/>
<path fill-rule="evenodd" fill="rgb(0%, 0%, 0%)" fill-opacity="1" d="M 1546.761719 963.667969 C 1568.558594 963.804688 1588.71875 952.117188 1599.449219 933.132812 C 1610.160156 914.148438 1609.761719 890.847656 1598.378906 872.25 C 1587 853.652344 1566.441406 842.675781 1544.660156 843.574219 C 1536.210938 826.160156 1519.300781 814.402344 1500.039062 812.539062 C 1480.769531 810.675781 1461.921875 818.972656 1450.289062 834.441406 C 1426.011719 829.699219 1401.128906 839.101562 1386.050781 858.726562 C 1370.980469 878.347656 1368.308594 904.8125 1379.160156 927.054688 C 1390 949.292969 1412.5 963.480469 1437.238281 963.683594 Z M 1398.039062 898.367188 C 1398.011719 885.394531 1404.398438 873.246094 1415.109375 865.929688 C 1425.820312 858.613281 1439.460938 857.082031 1451.53125 861.839844 C 1457.949219 864.34375 1465.21875 861.417969 1468.109375 855.160156 C 1472.898438 844.820312 1483.308594 838.246094 1494.710938 838.359375 C 1508.289062 838.324219 1520.121094 847.632812 1523.28125 860.847656 C 1524.960938 867.816406 1531.949219 872.121094 1538.929688 870.488281 C 1551.671875 867.496094 1565 872.085938 1573.199219 882.28125 C 1581.398438 892.484375 1583.019531 906.484375 1577.359375 918.285156 C 1571.699219 930.082031 1559.769531 937.589844 1546.679688 937.578125 L 1437.179688 937.578125 C 1415.558594 937.527344 1398.050781 919.988281 1398.050781 898.367188 L 1398.039062 898.367188 "/>
<path fill-rule="nonzero" fill="rgb(0%, 0%, 0%)" fill-opacity="1" d="M 2128.53125 1442.722656 C 2134.769531 1442.722656 2144.351562 1437.695312 2144.351562 1430.253906 C 2144.351562 1422.808594 2134.769531 1415.761719 2128.53125 1415.761719 L 1554.609375 1415.761719 C 1548.371094 1415.761719 1536.808594 1421.796875 1536.808594 1429.242188 C 1536.808594 1436.6875 1548.371094 1442.722656 1554.609375 1442.722656 L 2128.53125 1442.722656 "/>
<path fill-rule="nonzero" fill="rgb(0%, 0%, 0%)" fill-opacity="1" d="M 847.371094 1442.722656 C 853.609375 1442.722656 863.1875 1437.695312 863.1875 1430.253906 C 863.1875 1422.808594 853.609375 1415.761719 847.371094 1415.761719 L 273.445312 1415.761719 C 267.207031 1415.761719 255.652344 1421.796875 255.652344 1429.242188 C 255.652344 1436.6875 267.207031 1442.722656 273.445312 1442.722656 L 847.371094 1442.722656 "/>
<path fill-rule="evenodd" fill="rgb(0%, 0%, 0%)" fill-opacity="1" d="M 1572.738281 1048.480469 C 1562.320312 1048.480469 1553.871094 1056.929688 1553.871094 1067.351562 C 1553.871094 1077.777344 1562.320312 1086.226562 1572.738281 1086.226562 C 1583.171875 1086.226562 1591.621094 1077.777344 1591.621094 1067.351562 C 1591.621094 1056.929688 1583.171875 1048.480469 1572.738281 1048.480469 "/>
<path fill-rule="evenodd" fill="rgb(0%, 0%, 0%)" fill-opacity="1" d="M 1526.910156 1109.144531 C 1520.210938 1109.144531 1514.78125 1114.574219 1514.78125 1121.277344 C 1514.78125 1127.976562 1520.210938 1133.40625 1526.910156 1133.40625 C 1533.609375 1133.40625 1539.039062 1127.976562 1539.039062 1121.277344 C 1539.039062 1114.574219 1533.609375 1109.144531 1526.910156 1109.144531 "/>
<path fill-rule="evenodd" fill="rgb(0%, 0%, 0%)" fill-opacity="1" d="M 1584.199219 1172.503906 C 1577.5 1172.503906 1572.070312 1177.933594 1572.070312 1184.636719 C 1572.070312 1191.335938 1577.5 1196.769531 1584.199219 1196.769531 C 1590.898438 1196.769531 1596.328125 1191.335938 1596.328125 1184.636719 C 1596.328125 1177.933594 1590.898438 1172.503906 1584.199219 1172.503906 "/>
<path fill-rule="evenodd" fill="rgb(0%, 0%, 0%)" fill-opacity="1" d="M 1603.75 1238.558594 C 1599.648438 1238.558594 1596.328125 1241.878906 1596.328125 1245.972656 C 1596.328125 1250.066406 1599.648438 1253.386719 1603.75 1253.386719 C 1607.839844 1253.386719 1611.160156 1250.066406 1611.160156 1245.972656 C 1611.160156 1241.878906 1607.839844 1238.558594 1603.75 1238.558594 "/>
<path fill-rule="evenodd" fill="rgb(0%, 0%, 0%)" fill-opacity="1" d="M 1547.128906 804.480469 C 1540.429688 804.480469 1535 809.910156 1535 816.613281 C 1535 823.3125 1540.429688 828.742188 1547.128906 828.742188 C 1553.828125 828.742188 1559.261719 823.3125 1559.261719 816.613281 C 1559.261719 809.910156 1553.828125 804.480469 1547.128906 804.480469 "/>
<path fill-rule="evenodd" fill="rgb(0%, 0%, 0%)" fill-opacity="1" d="M 1509.378906 730.335938 C 1498.960938 730.335938 1490.511719 738.785156 1490.511719 749.207031 C 1490.511719 759.632812 1498.960938 768.082031 1509.378906 768.082031 C 1519.808594 768.082031 1528.261719 759.632812 1528.261719 749.207031 C 1528.261719 738.785156 1519.808594 730.335938 1509.378906 730.335938 "/>
<path fill-rule="evenodd" fill="rgb(0%, 0%, 0%)" fill-opacity="1" d="M 1583.53125 683.152344 C 1579.429688 683.152344 1576.109375 686.472656 1576.109375 690.566406 C 1576.109375 694.660156 1579.429688 697.980469 1583.53125 697.980469 C 1587.621094 697.980469 1590.941406 694.660156 1590.941406 690.566406 C 1590.941406 686.472656 1587.621094 683.152344 1583.53125 683.152344 "/>
<path fill-rule="evenodd" fill="rgb(0%, 0%, 0%)" fill-opacity="1" d="M 827.257812 1048.480469 C 837.679688 1048.480469 846.132812 1056.929688 846.132812 1067.351562 C 846.132812 1077.777344 837.679688 1086.226562 827.257812 1086.226562 C 816.832031 1086.226562 808.382812 1077.777344 808.382812 1067.351562 C 808.382812 1056.929688 816.832031 1048.480469 827.257812 1048.480469 "/>
<path fill-rule="evenodd" fill="rgb(0%, 0%, 0%)" fill-opacity="1" d="M 873.089844 1109.144531 C 879.792969 1109.144531 885.222656 1114.574219 885.222656 1121.277344 C 885.222656 1127.976562 879.792969 1133.40625 873.089844 1133.40625 C 866.390625 1133.40625 860.960938 1127.976562 860.960938 1121.277344 C 860.960938 1114.574219 866.390625 1109.144531 873.089844 1109.144531 "/>
<path fill-rule="evenodd" fill="rgb(0%, 0%, 0%)" fill-opacity="1" d="M 815.796875 1172.503906 C 822.5 1172.503906 827.929688 1177.933594 827.929688 1184.636719 C 827.929688 1191.335938 822.5 1196.769531 815.796875 1196.769531 C 809.097656 1196.769531 803.664062 1191.335938 803.664062 1184.636719 C 803.664062 1177.933594 809.097656 1172.503906 815.796875 1172.503906 "/>
<path fill-rule="evenodd" fill="rgb(0%, 0%, 0%)" fill-opacity="1" d="M 796.253906 1238.558594 C 800.347656 1238.558594 803.664062 1241.878906 803.664062 1245.972656 C 803.664062 1250.066406 800.347656 1253.386719 796.253906 1253.386719 C 792.15625 1253.386719 788.835938 1250.066406 788.835938 1245.972656 C 788.835938 1241.878906 792.15625 1238.558594 796.253906 1238.558594 "/>
<path fill-rule="evenodd" fill="rgb(0%, 0%, 0%)" fill-opacity="1" d="M 852.871094 804.480469 C 859.570312 804.480469 865.003906 809.910156 865.003906 816.613281 C 865.003906 823.3125 859.570312 828.742188 852.871094 828.742188 C 846.171875 828.742188 840.738281 823.3125 840.738281 816.613281 C 840.738281 809.910156 846.171875 804.480469 852.871094 804.480469 "/>
<path fill-rule="evenodd" fill="rgb(0%, 0%, 0%)" fill-opacity="1" d="M 890.617188 730.335938 C 901.039062 730.335938 909.492188 738.785156 909.492188 749.207031 C 909.492188 759.632812 901.039062 768.082031 890.617188 768.082031 C 880.191406 768.082031 871.742188 759.632812 871.742188 749.207031 C 871.742188 738.785156 880.191406 730.335938 890.617188 730.335938 "/>
<path fill-rule="evenodd" fill="rgb(0%, 0%, 0%)" fill-opacity="1" d="M 816.472656 683.152344 C 820.566406 683.152344 823.886719 686.472656 823.886719 690.566406 C 823.886719 694.660156 820.566406 697.980469 816.472656 697.980469 C 812.378906 697.980469 809.058594 694.660156 809.058594 690.566406 C 809.058594 686.472656 812.378906 683.152344 816.472656 683.152344 "/>
<path fill-rule="evenodd" fill="rgb(0%, 0%, 0%)" fill-opacity="1" d="M 553.507812 790.171875 C 554.878906 791.351562 558.96875 799.304688 559.460938 810.3125 C 560.15625 825.78125 586.640625 821.34375 590.984375 827.65625 C 586.640625 833.972656 560.15625 829.535156 559.460938 845.003906 C 558.96875 856.011719 554.878906 863.960938 553.507812 865.144531 C 552.136719 863.960938 548.046875 856.011719 547.550781 845.003906 C 546.855469 829.535156 520.371094 833.972656 516.027344 827.65625 C 520.371094 821.34375 546.855469 825.78125 547.550781 810.3125 C 548.046875 799.304688 552.136719 791.351562 553.507812 790.171875 "/>
<path fill-rule="evenodd" fill="rgb(0%, 0%, 0%)" fill-opacity="1" d="M 890.015625 627.390625 C 890.613281 627.910156 892.40625 631.390625 892.625 636.21875 C 892.929688 642.988281 904.53125 641.050781 906.433594 643.808594 C 904.53125 646.578125 892.929688 644.640625 892.625 651.410156 C 892.40625 656.238281 890.613281 659.71875 890.015625 660.238281 C 889.414062 659.71875 887.621094 656.238281 887.40625 651.410156 C 887.101562 644.640625 875.5 646.578125 873.597656 643.808594 C 875.5 641.050781 887.101562 642.988281 887.40625 636.21875 C 887.621094 631.390625 889.414062 627.910156 890.015625 627.390625 "/>
<path fill-rule="evenodd" fill="rgb(0%, 0%, 0%)" fill-opacity="1" d="M 1721.78125 590.988281 C 1722.378906 591.511719 1724.171875 595 1724.390625 599.820312 C 1724.691406 606.589844 1736.289062 604.648438 1738.191406 607.421875 C 1736.289062 610.179688 1724.691406 608.238281 1724.390625 615.011719 C 1724.171875 619.839844 1722.378906 623.320312 1721.78125 623.839844 C 1721.179688 623.320312 1719.378906 619.839844 1719.171875 615.011719 C 1718.859375 608.238281 1707.261719 610.179688 1705.359375 607.421875 C 1707.261719 604.648438 1718.859375 606.589844 1719.171875 599.820312 C 1719.378906 595 1721.179688 591.511719 1721.78125 590.988281 "/>
<path fill-rule="evenodd" fill="rgb(0%, 0%, 0%)" fill-opacity="1" d="M 1620.671875 787.8125 C 1621.269531 788.328125 1623.058594 791.8125 1623.28125 796.636719 C 1623.578125 803.410156 1635.191406 801.46875 1637.089844 804.234375 C 1635.191406 807 1623.578125 805.058594 1623.28125 811.832031 C 1623.058594 816.65625 1621.269531 820.140625 1620.671875 820.65625 C 1620.070312 820.140625 1618.28125 816.65625 1618.058594 811.832031 C 1617.761719 805.058594 1606.148438 807 1604.25 804.234375 C 1606.148438 801.46875 1617.761719 803.410156 1618.058594 796.636719 C 1618.28125 791.8125 1620.070312 788.328125 1620.671875 787.8125 "/>
<path fill-rule="nonzero" fill="rgb(0%, 0%, 0%)" fill-opacity="1" d="M 1849.359375 1599.152344 C 1856.5 1599.152344 1867.449219 1594.335938 1867.449219 1587.203125 C 1867.449219 1580.070312 1856.5 1573.316406 1849.359375 1573.316406 L 1765.398438 1573.316406 C 1758.269531 1573.316406 1745.050781 1579.101562 1745.050781 1586.234375 C 1745.050781 1593.367188 1758.269531 1599.152344 1765.398438 1599.152344 L 1849.359375 1599.152344 "/>
<path fill-rule="nonzero" fill="rgb(0%, 0%, 0%)" fill-opacity="1" d="M 1505.609375 1607.324219 C 1512.738281 1607.324219 1523.691406 1602.507812 1523.691406 1595.375 C 1523.691406 1588.238281 1512.738281 1581.488281 1505.609375 1581.488281 L 1462.980469 1581.488281 C 1455.851562 1581.488281 1442.640625 1587.269531 1442.640625 1594.40625 C 1442.640625 1601.539062 1455.851562 1607.324219 1462.980469 1607.324219 L 1505.609375 1607.324219 "/>
<path fill-rule="nonzero" fill="rgb(0%, 0%, 0%)" fill-opacity="1" d="M 1239.929688 1648.539062 C 1247.058594 1648.539062 1258.011719 1643.722656 1258.011719 1636.589844 C 1258.011719 1629.457031 1247.058594 1622.703125 1239.929688 1622.703125 L 1202.46875 1622.703125 C 1195.328125 1622.703125 1182.121094 1628.488281 1182.121094 1635.621094 C 1182.121094 1642.753906 1195.328125 1648.539062 1202.46875 1648.539062 L 1239.929688 1648.539062 "/>
<path fill-rule="nonzero" fill="rgb(0%, 0%, 0%)" fill-opacity="1" d="M 755.792969 1626.96875 C 762.929688 1626.96875 773.878906 1622.15625 773.878906 1615.019531 C 773.878906 1607.886719 762.929688 1601.136719 755.792969 1601.136719 L 747.398438 1601.136719 C 740.265625 1601.136719 727.054688 1606.917969 727.054688 1614.050781 C 727.054688 1621.1875 740.265625 1626.96875 747.398438 1626.96875 L 755.792969 1626.96875 "/>
<path fill-rule="nonzero" fill="rgb(0%, 0%, 0%)" fill-opacity="1" d="M 1760.109375 1660.671875 C 1767.238281 1660.671875 1778.191406 1655.855469 1778.191406 1648.722656 C 1778.191406 1641.589844 1767.238281 1634.835938 1760.109375 1634.835938 L 1751.710938 1634.835938 C 1744.578125 1634.835938 1731.371094 1640.621094 1731.371094 1647.753906 C 1731.371094 1654.886719 1744.578125 1660.671875 1751.710938 1660.671875 L 1760.109375 1660.671875 "/>
<path fill-rule="nonzero" fill="rgb(0%, 0%, 0%)" fill-opacity="1" d="M 1706.191406 1599.152344 C 1713.320312 1599.152344 1724.269531 1594.335938 1724.269531 1587.203125 C 1724.269531 1580.070312 1713.320312 1573.316406 1706.191406 1573.316406 L 1697.789062 1573.316406 C 1690.660156 1573.316406 1677.441406 1579.101562 1677.441406 1586.234375 C 1677.441406 1593.367188 1690.660156 1599.152344 1697.789062 1599.152344 L 1706.191406 1599.152344 "/>
<path fill-rule="nonzero" fill="rgb(0%, 0%, 0%)" fill-opacity="1" d="M 1903.179688 1516.429688 C 1910.308594 1516.429688 1921.261719 1511.613281 1921.261719 1504.480469 C 1921.261719 1497.34375 1910.308594 1490.59375 1903.179688 1490.59375 L 1865.71875 1490.59375 C 1858.589844 1490.59375 1845.378906 1496.378906 1845.378906 1503.511719 C 1845.378906 1510.644531 1858.589844 1516.429688 1865.71875 1516.429688 L 1903.179688 1516.429688 "/>
<path fill-rule="nonzero" fill="rgb(0%, 0%, 0%)" fill-opacity="1" d="M 544.320312 1542.039062 C 551.457031 1542.039062 562.40625 1537.226562 562.40625 1530.09375 C 562.40625 1522.957031 551.457031 1516.207031 544.320312 1516.207031 L 506.863281 1516.207031 C 499.726562 1516.207031 486.515625 1521.988281 486.515625 1529.125 C 486.515625 1536.257812 499.726562 1542.039062 506.863281 1542.039062 L 544.320312 1542.039062 "/>
<path fill-rule="nonzero" fill="rgb(0%, 0%, 0%)" fill-opacity="1" d="M 987.210938 1607.84375 C 994.34375 1607.84375 1005.289062 1603.03125 1005.289062 1595.898438 C 1005.289062 1588.761719 994.34375 1582.011719 987.210938 1582.011719 L 940.707031 1582.011719 C 933.574219 1582.011719 920.363281 1587.792969 920.363281 1594.925781 C 920.363281 1602.0625 933.574219 1607.84375 940.707031 1607.84375 L 987.210938 1607.84375 "/>
<path fill-rule="nonzero" fill="rgb(0%, 0%, 0%)" fill-opacity="1" d="M 483.484375 1640.449219 C 490.617188 1640.449219 501.566406 1635.636719 501.566406 1628.5 C 501.566406 1621.367188 490.617188 1614.617188 483.484375 1614.617188 L 475.089844 1614.617188 C 467.953125 1614.617188 454.742188 1620.398438 454.742188 1627.53125 C 454.742188 1634.667969 467.953125 1640.449219 475.089844 1640.449219 L 483.484375 1640.449219 "/>
<path fill-rule="evenodd" fill="rgb(0%, 0%, 0%)" fill-opacity="1" d="M 1158.789062 317.851562 C 1152.53125 312.960938 1142.410156 300.199219 1145.191406 292.761719 C 1147.96875 285.308594 1163 284.910156 1170.929688 285.328125 C 1197.921875 285.871094 1222.109375 268.761719 1230.578125 243.128906 C 1237.578125 223.699219 1234.550781 202.058594 1222.46875 185.300781 C 1210.390625 168.539062 1190.828125 158.808594 1170.171875 159.300781 C 1162.378906 159.351562 1150.371094 155.800781 1147.800781 148.449219 C 1145.21875 141.089844 1152.671875 131.570312 1158.789062 126.761719 C 1208.308594 88.828125 1278.609375 95.011719 1320.738281 141.019531 C 1362.878906 187.019531 1362.878906 257.589844 1320.738281 303.601562 C 1278.609375 349.601562 1208.308594 355.789062 1158.789062 317.851562 Z M 1324.929688 211.371094 C 1321.351562 182.269531 1304.398438 156.511719 1279.089844 141.710938 C 1222.691406 108.71875 1216.960938 145.019531 1238.460938 162.078125 C 1269.011719 196.640625 1267.949219 252.738281 1235.300781 285.808594 C 1219.789062 301.53125 1202.121094 314.539062 1236.058594 315.679688 C 1254.609375 314.820312 1272.808594 308.449219 1288.148438 296.910156 C 1314.691406 276.921875 1328.679688 244.390625 1324.929688 211.371094 "/>
<path fill-rule="evenodd" fill="rgb(0%, 0%, 0%)" fill-opacity="1" d="M 1317.109375 866.003906 C 1318.109375 866.867188 1321.109375 872.691406 1321.46875 880.753906 C 1321.980469 892.082031 1341.378906 888.832031 1344.558594 893.457031 C 1341.378906 898.082031 1321.980469 894.832031 1321.46875 906.160156 C 1321.109375 914.222656 1318.109375 920.046875 1317.109375 920.910156 C 1316.101562 920.046875 1313.109375 914.222656 1312.738281 906.160156 C 1312.238281 894.832031 1292.839844 898.082031 1289.660156 893.457031 C 1292.839844 888.832031 1312.238281 892.082031 1312.738281 880.753906 C 1313.109375 872.691406 1316.101562 866.867188 1317.109375 866.003906 "/>
<path fill-rule="evenodd" fill="rgb(0%, 0%, 0%)" fill-opacity="1" d="M 1426.300781 569.429688 C 1427.300781 570.289062 1430.300781 576.109375 1430.660156 584.179688 C 1431.171875 595.511719 1450.570312 592.261719 1453.75 596.878906 C 1450.570312 601.511719 1431.171875 598.261719 1430.660156 609.589844 C 1430.300781 617.648438 1427.300781 623.46875 1426.300781 624.339844 C 1425.300781 623.46875 1422.300781 617.648438 1421.941406 609.589844 C 1421.429688 598.261719 1402.03125 601.511719 1398.851562 596.878906 C 1402.03125 592.261719 1421.429688 595.511719 1421.941406 584.179688 C 1422.300781 576.109375 1425.300781 570.289062 1426.300781 569.429688 "/>
<path fill-rule="evenodd" fill="rgb(0%, 0%, 0%)" fill-opacity="1" d="M 1016.488281 496.628906 C 1017.488281 497.488281 1020.488281 503.320312 1020.851562 511.378906 C 1021.359375 522.710938 1040.761719 519.460938 1043.941406 524.089844 C 1040.761719 528.710938 1021.359375 525.460938 1020.851562 536.789062 C 1020.488281 544.851562 1017.488281 550.679688 1016.488281 551.539062 C 1015.480469 550.679688 1012.488281 544.851562 1012.121094 536.789062 C 1011.621094 525.460938 992.21875 528.710938 989.035156 524.089844 C 992.21875 519.460938 1011.621094 522.710938 1012.121094 511.378906 C 1012.488281 503.320312 1015.480469 497.488281 1016.488281 496.628906 "/>
<path fill-rule="evenodd" fill="rgb(0%, 0%, 0%)" fill-opacity="1" d="M 1147.25 528.980469 C 1148.25 529.851562 1151.25 535.671875 1151.609375 543.738281 C 1152.121094 555.058594 1171.519531 551.808594 1174.699219 556.441406 C 1171.519531 561.058594 1152.121094 557.808594 1151.609375 569.140625 C 1151.25 577.210938 1148.25 583.03125 1147.25 583.890625 C 1146.25 583.03125 1143.25 577.210938 1142.890625 569.140625 C 1142.378906 557.808594 1122.980469 561.058594 1119.800781 556.441406 C 1122.980469 551.808594 1142.378906 555.058594 1142.890625 543.738281 C 1143.25 535.671875 1146.25 529.851562 1147.25 528.980469 "/>
<path fill-rule="nonzero" fill="rgb(0%, 0%, 0%)" fill-opacity="1" d="M 1274.488281 412.46875 C 1281.359375 415.980469 1284.078125 424.390625 1280.570312 431.25 C 1277.070312 438.121094 1268.660156 440.839844 1261.789062 437.328125 C 1254.75 433.738281 1247.058594 430.480469 1238.789062 427.640625 C 1230.898438 424.929688 1222.691406 422.710938 1214.25 421.058594 C 1206.660156 419.570312 1196.308594 410.199219 1197.789062 402.601562 C 1199.28125 395.011719 1212.03125 392.078125 1219.621094 393.558594 C 1229.398438 395.480469 1238.851562 398.03125 1247.878906 401.140625 C 1256.96875 404.261719 1265.871094 408.070312 1274.488281 412.46875 "/>
<path fill-rule="nonzero" fill="rgb(0%, 0%, 0%)" fill-opacity="1" d="M 1171.828125 912.777344 C 1177.808594 917.648438 1183.78125 932.179688 1178.910156 938.167969 C 1174.039062 944.15625 1160.179688 939.335938 1154.191406 934.464844 C 1153.390625 933.808594 869.699219 705.757812 1165.5 643.011719 C 1241.121094 626.96875 1287.828125 602.730469 1312.671875 575.910156 C 1322.390625 565.421875 1328.621094 554.589844 1331.820312 543.800781 C 1334.921875 533.339844 1335.160156 522.800781 1332.988281 512.570312 C 1329.339844 495.328125 1318.890625 478.78125 1303.621094 464.628906 C 1297.960938 459.398438 1292.230469 447.199219 1297.460938 441.550781 C 1302.691406 435.890625 1316.910156 438.921875 1322.570312 444.148438 C 1342.070312 462.21875 1355.511719 483.820312 1360.378906 506.769531 C 1363.488281 521.441406 1363.121094 536.589844 1358.648438 551.679688 C 1354.28125 566.441406 1345.980469 581.019531 1333.160156 594.859375 C 1304.628906 625.660156 1253.03125 653.058594 1171.308594 670.398438 C 933.269531 720.886719 1171.148438 912.226562 1171.828125 912.777344 "/>
<path fill-rule="nonzero" fill="rgb(0%, 0%, 0%)" fill-opacity="1" d="M 1228.269531 821.042969 C 1232.808594 827.304688 1235.789062 842.796875 1229.53125 847.335938 C 1223.269531 851.871094 1210.128906 843.734375 1205.601562 837.472656 C 1205.300781 837.070312 1100.261719 697.730469 1414.308594 648.300781 C 1506.828125 633.730469 1571.390625 599.738281 1611.859375 556.578125 C 1634.101562 532.859375 1649.03125 506.320312 1657.289062 478.738281 C 1665.558594 451.140625 1667.179688 422.488281 1662.789062 394.589844 C 1655.589844 348.859375 1632.269531 304.941406 1595.589844 270.558594 C 1589.96875 265.261719 1583.628906 250.351562 1588.929688 244.71875 C 1594.21875 239.101562 1609.140625 244.890625 1614.761719 250.191406 C 1655.980469 288.828125 1682.230469 338.449219 1690.390625 390.320312 C 1695.429688 422.339844 1693.589844 455.160156 1684.128906 486.730469 C 1674.660156 518.328125 1657.601562 548.679688 1632.230469 575.75 C 1587.828125 623.109375 1517.898438 660.269531 1418.578125 675.898438 C 1150.269531 718.132812 1228.050781 820.746094 1228.269531 821.042969 "/>
<path fill-rule="nonzero" fill="rgb(0%, 0%, 0%)" fill-opacity="1" d="M 1561.550781 373.738281 C 1557.011719 367.511719 1555.011719 355.070312 1561.238281 350.53125 C 1567.46875 346 1579.570312 351.078125 1584.109375 357.308594 C 1584.359375 357.660156 1674.75 478.210938 1519.921875 558.601562 C 1513.050781 562.128906 1497.878906 563.140625 1494.339844 556.28125 C 1490.800781 549.410156 1500.238281 537.269531 1507.101562 533.730469 C 1632.679688 468.53125 1561.75 374.011719 1561.550781 373.738281 "/>
<path fill-rule="evenodd" fill="rgb(91.796875%, 58.396912%, 18.821716%)" fill-opacity="1" d="M 1148.648438 1269.738281 C 1155.050781 1265.988281 1163.929688 1254.722656 1160.179688 1248.324219 C 1156.429688 1241.929688 1141.460938 1242.816406 1135.058594 1246.566406 C 1134.839844 1246.695312 1058.539062 1292.21875 994.097656 1250.875 C 987.84375 1246.863281 974.128906 1243.621094 970.113281 1249.875 C 966.101562 1256.128906 973.308594 1269.507812 979.5625 1273.519531 C 1058.011719 1323.84375 1148.390625 1269.890625 1148.648438 1269.738281 "/>
<path fill-rule="evenodd" fill="rgb(91.796875%, 58.396912%, 18.821716%)" fill-opacity="1" d="M 1235.371094 1148.550781 C 1241.101562 1143.808594 1246.28125 1131.949219 1241.539062 1126.222656 C 1236.800781 1120.492188 1223.929688 1123.0625 1218.199219 1127.800781 C 1217.878906 1128.066406 1106.441406 1221.757812 1007.980469 1169.410156 C 1001.398438 1165.921875 987.855469 1163.367188 984.363281 1169.9375 C 980.875 1176.511719 988.765625 1189.726562 995.339844 1193.214844 C 1109.871094 1254.105469 1235.011719 1148.847656 1235.371094 1148.550781 "/>
<path fill-rule="evenodd" fill="rgb(0%, 0%, 0%)" fill-opacity="1" d="M 1553.21875 1441.976562 C 1445.449219 1443.011719 912.269531 1442.9375 805.941406 1441.949219 C 805.828125 1441.9375 805.722656 1441.921875 805.605469 1441.90625 C 771.230469 1438.199219 784.714844 1413.9375 784.714844 1413.9375 L 805.402344 1378.21875 L 805.402344 1378.808594 L 981.71875 1070.253906 C 988.738281 1058.09375 992.625 1048.351562 992.625 1035.382812 L 992.625 1026.15625 C 992.625 1018.769531 998.613281 1006.71875 1006 1006.71875 C 1013.378906 1006.71875 1019.371094 1018.769531 1019.371094 1026.15625 C 1019.371094 1036.476562 1023.351562 1041.335938 1040.671875 1041.335938 L 1307.089844 1041.335938 C 1330.339844 1041.335938 1340.320312 1036.320312 1340.320312 1013.558594 C 1340.320312 1006.261719 1344.640625 992.226562 1353.699219 992.226562 C 1361.078125 992.226562 1367.070312 1004.277344 1367.070312 1011.664062 L 1367.070312 1021.3125 C 1367.410156 1045.71875 1376.410156 1067.699219 1387.421875 1086.769531 L 1539.019531 1352.066406 L 1538.960938 1352.261719 L 1551.261719 1373.503906 L 1554.289062 1378.808594 L 1554.289062 1378.734375 L 1574.679688 1413.9375 C 1574.679688 1413.9375 1588.160156 1438.199219 1553.789062 1441.90625 C 1553.589844 1441.929688 1553.410156 1441.953125 1553.21875 1441.976562 Z M 1340.320312 1382.933594 L 1340.320312 1153.761719 C 1340.320312 1128.667969 1317.539062 1141.539062 1308.101562 1161.464844 L 1186.679688 1373.96875 C 1172.511719 1398.511719 1184.171875 1415.78125 1211.378906 1415.78125 L 1313.148438 1415.78125 C 1331.929688 1415.78125 1340.320312 1403.066406 1340.320312 1382.933594 Z M 1003.488281 1086.050781 L 842.265625 1368.207031 C 822.710938 1402.078125 821.390625 1415.78125 864.414062 1415.78125 L 1092.410156 1415.78125 C 1105.730469 1416.457031 1146.660156 1396.253906 1166.191406 1355.953125 L 1307.070312 1109.941406 C 1322.820312 1082.675781 1316.03125 1068.082031 1290.910156 1068.082031 L 1038.648438 1068.082031 C 1023.308594 1068.082031 1010.410156 1074.066406 1003.488281 1086.050781 Z M 1367.070312 1153.082031 L 1367.070312 1383.601562 C 1367.070312 1400.398438 1371.429688 1415.785156 1391.679688 1415.785156 L 1499.871094 1415.78125 C 1517.128906 1415.78125 1541.398438 1409.816406 1522.308594 1376.75 L 1386.269531 1138.675781 C 1374.949219 1119.070312 1366.980469 1130.144531 1367.070312 1153.082031 "/>
<path fill-rule="nonzero" fill="rgb(0%, 0%, 0%)" fill-opacity="1" d="M 1235.371094 1148.550781 C 1241.101562 1143.808594 1246.28125 1131.949219 1241.539062 1126.222656 C 1236.800781 1120.492188 1223.929688 1123.0625 1218.199219 1127.800781 C 1217.878906 1128.066406 1106.441406 1221.757812 1007.980469 1169.410156 C 1001.398438 1165.921875 987.855469 1163.367188 984.363281 1169.9375 C 980.875 1176.511719 988.765625 1189.726562 995.339844 1193.214844 C 1109.871094 1254.105469 1235.011719 1148.847656 1235.371094 1148.550781 "/>
<path fill-rule="nonzero" fill="rgb(0%, 0%, 0%)" fill-opacity="1" d="M 1148.648438 1269.738281 C 1155.050781 1265.988281 1163.929688 1254.722656 1160.179688 1248.324219 C 1156.429688 1241.929688 1141.460938 1242.816406 1135.058594 1246.566406 C 1134.839844 1246.695312 1058.539062 1292.21875 994.097656 1250.875 C 987.84375 1246.863281 974.128906 1243.621094 970.113281 1249.875 C 966.101562 1256.128906 973.308594 1269.507812 979.5625 1273.519531 C 1058.011719 1323.84375 1148.390625 1269.890625 1148.648438 1269.738281 "/>
</svg>
